Sprint_06300001_forces_filt15Hz.mot
version=1
nRows=28
nColumns=19
inDegrees=yes
endheader
time	R_ground_force_vx	R_ground_force_vy	R_ground_force_vz	R_ground_force_px	R_ground_force_py	R_ground_force_pz	R_ground_torque_x	R_ground_torque_y	R_ground_torque_z	L_ground_force_vx	L_ground_force_vy	L_ground_force_vz	L_ground_force_px	L_ground_force_py	L_ground_force_pz	L_ground_torque_x	L_ground_torque_y	L_ground_torque_z	
0.000000	  0.000000	  0.000000	  0.000000	  0.227291	  0.000000	 -0.271352	  0.000000	  0.000000	  0.000000	  0.000000	  0.000000	  0.000000	  0.889518	  0.000000	 -0.367024	  0.000000	  0.000000	  0.000000
0.000500	  0.000000	  0.000000	  0.000000	  0.226495	 -0.000000	 -0.271097	  0.000000	  0.000000	  0.000000	  0.000000	  0.000000	  0.000000	  0.892466	 -0.000000	 -0.366906	  0.000000	  0.000000	  0.000000
0.001000	  0.000000	  0.000000	  0.000000	  0.225700	 -0.000000	 -0.270842	  0.000000	  0.000000	  0.000000	  0.000000	  0.000000	  0.000000	  0.895413	 -0.000000	 -0.366788	  0.000000	  0.000000	  0.000000
0.001500	  0.000000	  0.000000	  0.000000	  0.224904	 -0.000000	 -0.270586	  0.000000	  0.000000	  0.000000	  0.000000	  0.000000	  0.000000	  0.898360	 -0.000000	 -0.366670	  0.000000	  0.000000	  0.000000
0.002000	  0.000000	  0.000000	  0.000000	  0.224109	 -0.000000	 -0.270331	  0.000000	  0.000000	  0.000000	  0.000000	  0.000000	  0.000000	  0.901308	 -0.000000	 -0.366552	  0.000000	  0.000000	  0.000000
0.002500	  0.000000	  0.000000	  0.000000	  0.223313	  0.000000	 -0.270076	  0.000000	  0.000000	  0.000000	  0.000000	  0.000000	  0.000000	  0.904255	  0.000000	 -0.366433	  0.000000	  0.000000	  0.000000
0.003000	  0.000000	  0.000000	  0.000000	  0.222518	  0.000000	 -0.269820	  0.000000	  0.000000	  0.000000	  0.000000	  0.000000	  0.000000	  0.907202	  0.000000	 -0.366315	  0.000000	  0.000000	  0.000000
0.003500	  0.000000	  0.000000	  0.000000	  0.221722	  0.000000	 -0.269565	  0.000000	  0.000000	  0.000000	  0.000000	  0.000000	  0.000000	  0.910150	  0.000000	 -0.366197	  0.000000	  0.000000	  0.000000
0.004000	  0.000000	  0.000000	  0.000000	  0.220927	  0.000000	 -0.269309	  0.000000	  0.000000	  0.000000	  0.000000	  0.000000	  0.000000	  0.913097	  0.000000	 -0.366079	  0.000000	  0.000000	  0.000000
0.004500	  0.000000	  0.000000	  0.000000	  0.220131	  0.000000	 -0.269054	  0.000000	  0.000000	  0.000000	  0.000000	  0.000000	  0.000000	  0.916044	  0.000000	 -0.365961	  0.000000	  0.000000	  0.000000
0.005000	  0.000000	  0.000000	  0.000000	  0.219336	  0.000000	 -0.268799	  0.000000	  0.000000	  0.000000	  0.000000	  0.000000	  0.000000	  0.918992	  0.000000	 -0.365843	  0.000000	  0.000000	  0.000000
0.005500	  0.000000	  0.000000	  0.000000	  0.218510	  0.000000	 -0.268664	  0.000000	  0.000000	  0.000000	  0.000000	  0.000000	  0.000000	  0.922012	  0.000000	 -0.365765	  0.000000	  0.000000	  0.000000
0.006000	  0.000000	  0.000000	  0.000000	  0.217685	  0.000000	 -0.268529	  0.000000	  0.000000	  0.000000	  0.000000	  0.000000	  0.000000	  0.925033	  0.000000	 -0.365688	  0.000000	  0.000000	  0.000000
0.006500	  0.000000	  0.000000	  0.000000	  0.216859	  0.000000	 -0.268395	  0.000000	  0.000000	  0.000000	  0.000000	  0.000000	  0.000000	  0.928053	  0.000000	 -0.365610	  0.000000	  0.000000	  0.000000
0.007000	  0.000000	  0.000000	  0.000000	  0.216033	  0.000000	 -0.268260	  0.000000	  0.000000	  0.000000	  0.000000	  0.000000	  0.000000	  0.931074	  0.000000	 -0.365532	  0.000000	  0.000000	  0.000000
0.007500	  0.000000	  0.000000	  0.000000	  0.215208	  0.000000	 -0.268126	  0.000000	  0.000000	  0.000000	  0.000000	  0.000000	  0.000000	  0.934094	  0.000000	 -0.365454	  0.000000	  0.000000	  0.000000
0.008000	  0.000000	  0.000000	  0.000000	  0.214382	  0.000000	 -0.267991	  0.000000	  0.000000	  0.000000	  0.000000	  0.000000	  0.000000	  0.937114	  0.000000	 -0.365376	  0.000000	  0.000000	  0.000000
0.008500	  0.000000	  0.000000	  0.000000	  0.213557	  0.000000	 -0.267856	  0.000000	  0.000000	  0.000000	  0.000000	  0.000000	  0.000000	  0.940135	  0.000000	 -0.365299	  0.000000	  0.000000	  0.000000
0.009000	  0.000000	  0.000000	  0.000000	  0.212731	  0.000000	 -0.267722	  0.000000	  0.000000	  0.000000	  0.000000	  0.000000	  0.000000	  0.943155	  0.000000	 -0.365221	  0.000000	  0.000000	  0.000000
0.009500	  0.000000	  0.000000	  0.000000	  0.211906	  0.000000	 -0.267587	  0.000000	  0.000000	  0.000000	  0.000000	  0.000000	  0.000000	  0.946176	  0.000000	 -0.365143	  0.000000	  0.000000	  0.000000
0.010000	  0.000000	  0.000000	  0.000000	  0.211080	  0.000000	 -0.267452	  0.000000	  0.000000	  0.000000	  0.000000	  0.000000	  0.000000	  0.949196	  0.000000	 -0.365065	  0.000000	  0.000000	  0.000000
0.010500	  0.000000	  0.000000	  0.000000	  0.210228	  0.000000	 -0.267410	  0.000000	  0.000000	  0.000000	  0.000000	  0.000000	  0.000000	  0.952170	  0.000000	 -0.364984	  0.000000	  0.000000	  0.000000
0.011000	  0.000000	  0.000000	  0.000000	  0.209377	  0.000000	 -0.267368	  0.000000	  0.000000	  0.000000	  0.000000	  0.000000	  0.000000	  0.955143	  0.000000	 -0.364903	  0.000000	  0.000000	  0.000000
0.011500	  0.000000	  0.000000	  0.000000	  0.208525	  0.000000	 -0.267325	  0.000000	  0.000000	  0.000000	  0.000000	  0.000000	  0.000000	  0.958117	  0.000000	 -0.364823	  0.000000	  0.000000	  0.000000
0.012000	  0.000000	  0.000000	  0.000000	  0.207674	  0.000000	 -0.267283	  0.000000	  0.000000	  0.000000	  0.000000	  0.000000	  0.000000	  0.961091	  0.000000	 -0.364742	  0.000000	  0.000000	  0.000000
0.012500	  0.000000	  0.000000	  0.000000	  0.206822	  0.000000	 -0.267240	  0.000000	  0.000000	  0.000000	  0.000000	  0.000000	  0.000000	  0.964064	  0.000000	 -0.364661	  0.000000	  0.000000	  0.000000
0.013000	  0.000000	  0.000000	  0.000000	  0.205970	  0.000000	 -0.267198	  0.000000	  0.000000	  0.000000	  0.000000	  0.000000	  0.000000	  0.967038	  0.000000	 -0.364580	  0.000000	  0.000000	  0.000000
0.013500	  0.000000	  0.000000	  0.000000	  0.205119	  0.000000	 -0.267155	  0.000000	  0.000000	  0.000000	  0.000000	  0.000000	  0.000000	  0.970011	  0.000000	 -0.364499	  0.000000	  0.000000	  0.000000
